# xmcd
#
# Track frame offsets: 
#        150
#        18337
#        36712
#        61912
#        77587
#        97762
#        121837
#        136087
#
# Disc length: 2030 seconds
#
# Revision: 5
# Processed by: cddbd v1.5.2PL0 Copyright (c) Steve Scherf et al.
# Submitted via: ExactAudioCopy v1.3
#
DISCID=5a07ec08
DTITLE=Sarah Vaughan - Crazy And Mixed Up
DYEAR=1982
DGENRE=Jazz
TTITLE0=I Didn't Know What Time It Is
TTITLE1=That's All
TTITLE2=Autumn Leaves
TTITLE3=Love Dance
TTITLE4=The Island
TTITLE5=Seasons
TTITLE6=In Love in Vain
TTITLE7=You Are Too Beautiful
EXTD=YEAR: 1982
EXTT0=
EXTT1=
EXTT2=
EXTT3=
EXTT4=
EXTT5=
EXTT6=
EXTT7=
PLAYORDER=
